Coordinates
version=1
nRows=10
nColumns=63
inDegrees=yes

Units are S.I. units (second, meters, Newtons, ...)
If the header above contains a line with 'inDegrees', this indicates whether rotational values are in degrees (yes) or radians (no).

endheader
time	pelvis_tilt	pelvis_list	pelvis_rotation	pelvis_tx	pelvis_ty	pelvis_tz	hip_flexion_r	hip_adduction_r	hip_rotation_r	knee_angle_r	knee_angle_r_beta	ankle_angle_r	subtalar_angle_r	mtp_angle_r	hip_flexion_l	hip_adduction_l	hip_rotation_l	knee_angle_l	knee_angle_l_beta	ankle_angle_l	subtalar_angle_l	mtp_angle_l	L5_S1_Flex_Ext	L5_S1_Lat_Bending	L5_S1_axial_rotation	L4_L5_Flex_Ext	L4_L5_Lat_Bending	L4_L5_axial_rotation	L3_L4_Flex_Ext	L3_L4_Lat_Bending	L3_L4_axial_rotation	L2_L3_Flex_Ext	L2_L3_Lat_Bending	L2_L3_axial_rotation	L1_L2_Flex_Ext	L1_L2_Lat_Bending	L1_L2_axial_rotation	L1_T12_Flex_Ext	L1_T12_Lat_Bending	L1_T12_axial_rotation	Abs_r3	Abs_r2	Abs_r1	Abs_t1	Abs_t2	neck_flexion	neck_bending	neck_rotation	arm_flex_r	arm_add_r	arm_rot_r	elbow_flex_r	pro_sup_r	wrist_flex_r	wrist_dev_r	arm_flex_l	arm_add_l	arm_rot_l	elbow_flex_l	pro_sup_l	wrist_flex_l	wrist_dev_l
      2.07317073	    -13.45213096	    -10.38710191	     84.02172688	      0.27931669	      0.41492105	      0.90609031	      5.72675929	     -4.72297596	    -12.68950895	      2.91492147	      0.05087498	     20.02642162	     -9.02554029	      0.00000000	      9.20115332	      6.62033798	    -10.26388920	      8.39737221	      0.14656179	     22.82669227	     16.96909980	      0.00000000	     -0.48234175	     -1.53347754	      1.01645095	     -0.89575687	     -2.03952512	      1.07997913	     -0.79243927	     -3.72849728	      1.07997913	     -0.55126839	     -3.72849728	      0.88939458	     -0.44790255	     -3.12706739	      0.82586640	     -0.27561008	     -2.37535670	      0.76233821	     -3.44531891	    -17.34700459	      5.65319524	      0.00000000	      0.00000000	    -10.06083751	     15.13366863	      0.81861692	      7.87635560	     -5.83581857	     24.16675212	    130.19203216	     84.97169773	      6.61628851	     14.32754470	    -11.66311168	    -23.30843154	     36.52300346	     26.68547325	     70.56565066	    -14.96025271	     -1.98965930
      2.09756098	    -13.79160915	    -10.57155878	     83.40957871	      0.28207342	      0.41551466	      0.90526336	      5.99234934	     -4.88684034	    -12.73594979	      3.06546329	      0.05350243	     19.74587506	     -8.48290085	      0.00000000	      9.31317591	      6.73828851	    -11.20984861	      8.23531216	      0.14373331	     22.09813668	     17.12309184	      0.00000000	     -0.45284746	     -1.62681061	      1.21610859	     -0.84098302	     -2.16365812	      1.29211537	     -0.74398310	     -3.95542733	      1.29211537	     -0.51755936	     -3.95542733	      1.06409501	     -0.42051415	     -3.31739221	      0.98808823	     -0.25875704	     -2.51992964	      0.91208144	     -3.23464414	    -18.40280703	      6.76363112	      0.00000000	      0.00000000	    -10.52683671	     15.58948675	     -0.95522716	     11.06006890	     -4.83529813	     24.70460894	    134.96843229	     86.22762012	      1.95514165	     13.38622598	    -11.69641979	    -24.15490871	     36.50643067	     27.17170580	     72.34858983	    -14.67979555	     -1.17210526
      2.12195122	    -14.15352661	    -10.58910248	     83.39082649	      0.28414562	      0.41672867	      0.90417825	      5.85918621	     -5.11708812	    -13.03447897	      2.89895564	      0.05059632	     19.35991009	     -8.14080701	      0.00000000	      9.31259360	      6.96569824	    -11.61534711	      8.25342591	      0.14404946	     21.30834428	     17.27990274	      0.00000000	     -0.44309415	     -1.72486943	      1.32249887	     -0.82287015	     -2.29407634	      1.40515505	     -0.72795938	     -4.19384753	      1.40515505	     -0.50641230	     -4.19384753	      1.15718651	     -0.41145723	     -3.51735374	      1.07453033	     -0.25318400	     -2.67182275	      0.99187415	     -3.16497720	    -19.51206796	      7.35534197	      0.00000000	      0.00000000	    -10.99898575	     16.29289655	     -2.72729326	     13.65423948	     -3.32312036	     23.83643851	    138.58374124	     87.09681032	      0.52988235	     12.53977085	    -11.85561249	    -25.15995971	     36.37001186	     27.98860642	     72.65491037	    -14.26098691	     -0.97742775
      2.14634146	    -14.27402709	    -10.57547346	     83.07101946	      0.28588463	      0.41817211	      0.90328400	      5.97852280	     -5.27466040	    -15.96750914	      3.27406923	      0.05714329	     20.09142930	     -3.41125020	      0.00000000	      9.25465309	      6.94243583	    -12.51681859	      8.25605758	      0.14409539	     20.62436736	     17.56178791	      0.00000000	     -0.41459511	     -1.77766099	      1.50271261	     -0.76994458	     -2.36428912	      1.59663215	     -0.68113830	     -4.32220493	      1.59663215	     -0.47384075	     -4.32220493	      1.31487353	     -0.38499302	     -3.62500629	      1.22095399	     -0.23689965	     -2.75359687	      1.12703446	     -2.96141140	    -20.10925665	      8.35763672	      0.00000000	      0.00000000	    -11.92816572	     16.82043965	     -4.19563462	     15.35517785	     -2.37601843	     22.88430235	    141.47747465	     88.22426395	     -1.97892568	     11.95817471	    -12.20151995	    -25.51188974	     33.95855718	     28.78843003	     75.25835513	    -13.36172623	      0.16002603
      2.17073171	    -14.35011593	    -10.43962239	     82.77505970	      0.28732269	      0.41963003	      0.90245924	      5.85502774	     -5.31379685	    -16.43912212	      3.30198230	      0.05763046	     19.93262952	     -2.15702528	      0.00000000	      9.08353677	      6.91216856	    -13.24170721	      8.29620585	      0.14479611	     20.00414345	     17.65092457	      0.00000000	     -0.40496830	     -1.81547821	      1.69544992	     -0.75206664	     -2.41458602	      1.80141553	     -0.66532243	     -4.41415373	      1.80141553	     -0.46283827	     -4.41415373	      1.48351868	     -0.37605357	     -3.70212317	      1.37755306	     -0.23139889	     -2.81217575	      1.27158744	     -2.89264810	    -20.53705264	      9.42958379	      0.00000000	      0.00000000	    -12.82816288	     17.42946968	     -6.03049673	     15.76773153	     -1.71532870	     21.07261027	    143.76700420	     88.81536190	     -2.64185205	     12.25315827	    -12.04689777	    -25.93966098	     33.78440964	     29.22802037	     74.80899647	    -13.15047909	      0.35469401
      2.19512195	    -14.32700339	    -10.15582763	     82.52582823	      0.28841415	      0.42091397	      0.90236176	      5.61958878	     -5.28999086	    -16.87539254	      3.35172883	      0.05849870	     19.78296521	     -1.16307163	      0.00000000	      8.86537565	      6.79820035	    -13.86371261	      8.50036705	      0.14835939	     19.63116468	     17.71010052	      0.00000000	     -0.42954306	     -1.83598044	      1.81681876	     -0.79770441	     -2.44185398	      1.93036994	     -0.70569629	     -4.46400284	      1.93036994	     -0.49092476	     -4.46400284	      1.58971642	     -0.39887368	     -3.74393131	      1.47616525	     -0.24544090	     -2.84393370	      1.36261407	     -3.06818310	    -20.76897792	     10.10460092	      0.00000000	      0.00000000	    -13.41783324	     18.06000988	     -7.92565764	     15.67651929	     -1.57135813	     19.06623218	    145.34086781	     89.19030288	     -3.21559861	     12.24775784	    -11.77231975	    -26.04372559	     33.66557649	     29.11148378	     74.49022231	    -13.22287307	      0.32103990
      2.21951220	    -14.44128380	     -9.80965713	     81.74967239	      0.28965623	      0.42168448	      0.90295142	      5.58035651	     -5.48222026	    -17.36738713	      3.72063648	      0.06493736	     19.85831114	      0.52419065	      0.00000000	      8.65709328	      6.81532698	    -14.93747142	      8.65768761	      0.15110515	     19.44965215	     17.73397058	      0.00000000	     -0.45582741	     -1.86886784	      1.95489314	     -0.84651709	     -2.48559423	      2.07707396	     -0.74887886	     -4.54396527	      2.07707396	     -0.52096515	     -4.54396527	      1.71053150	     -0.42328134	     -3.81099530	      1.58835068	     -0.26045978	     -2.89487629	      1.46616986	     -3.25592963	    -21.14100679	     10.87252920	      0.00000000	      0.00000000	    -13.77594594	     17.92211961	    -10.44285889	     15.66832948	     -1.65336582	     17.01179295	    146.43173327	     89.37079722	     -4.05320461	     12.26094028	    -11.46334596	    -26.11771642	     34.04291766	     28.69950509	     74.34971735	    -13.06872085	      0.39219212
      2.24390244	    -14.71865799	     -9.44341026	     80.69730164	      0.29148794	      0.42214075	      0.90400424	      5.82555466	     -6.12049562	    -22.43467755	      4.78091893	      0.08344278	     21.27631170	      8.75299699	      0.00000000	      8.46243079	      6.97251812	    -16.02749347	      8.71456776	      0.15209790	     19.43812909	     17.81935690	      0.00000000	     -0.48413573	     -1.92555686	      2.02595460	     -0.89908846	     -2.56099062	      2.15257676	     -0.79538658	     -4.68179895	      2.15257676	     -0.55331872	     -4.68179895	      1.77271028	     -0.44956844	     -3.92659555	      1.64608811	     -0.27663515	     -2.98268758	      1.51946595	     -3.45813308	    -21.78228430	     11.26775171	      0.00000000	      0.00000000	    -14.01411897	     17.60816458	    -12.18990721	     15.83713807	     -1.69395335	     15.66524346	    146.97681646	     89.44851769	     -5.56961929	     11.55371073	    -11.26236297	    -26.28182121	     34.98727703	     28.06138926	     73.72756039	    -13.02281020	      0.42742666
      2.26829268	    -15.09954852	     -8.98389640	     79.66657054	      0.29389129	      0.42233767	      0.90487592	      5.71882097	     -6.50610056	    -21.75555704	      5.08085028	      0.08867757	     21.22698250	      8.88635498	      0.00000000	      8.12265454	      7.29084241	    -16.66230831	      8.57036077	      0.14958101	     19.50107914	     17.61913833	      0.00000000	     -0.53921808	     -2.00436248	      2.02547414	     -1.00138190	     -2.66580210	      2.15206627	     -0.88588139	     -4.87340694	      2.15206627	     -0.61627235	     -4.87340694	      1.77228987	     -0.50071791	     -4.08729597	      1.64569774	     -0.30810921	     -3.10475748	      1.51910561	     -3.85158085	    -22.67374926	     11.26507953	      0.00000000	      0.00000000	    -13.84911845	     16.87118261	    -13.95771783	     15.62546145	     -1.39622091	     14.91663410	    147.30512664	     89.46820042	     -6.84497585	     10.77262513	    -11.45208726	    -26.44802895	     34.59445642	     27.54946673	     73.63432543	    -12.64802170	      0.57014752
      2.29268293	    -15.56787123	     -8.51913739	     78.84227203	      0.29631587	      0.42243123	      0.90548334	      5.50061027	     -6.96832459	    -21.07616617	      5.22436311	      0.09118234	     21.26568210	      8.87149314	      0.00000000	      7.82500940	      7.70382876	    -17.14583443	      8.54341725	      0.14911076	     19.62972658	     17.43549946	      0.00000000	     -0.60510820	     -2.09504489	      1.96342975	     -1.12374643	     -2.78640971	      2.08614411	     -0.99413226	     -5.09389215	      2.08614411	     -0.69157816	     -5.09389215	      1.71800103	     -0.56190347	     -4.27221554	      1.59528667	     -0.34575882	     -3.24522454	      1.47257231	     -4.32222735	    -23.69956682	     10.92000725	      0.00000000	      0.00000000	    -13.38006966	     16.03402737	    -15.35129039	     15.00695668	     -0.89040439	     14.67067011	    147.47966790	     89.45653792	     -7.84651733	     10.07305651	    -11.54379756	    -26.64593768	     34.47341119	     26.80628730	     73.63141726	    -12.30141705	      0.56914204
